<svg width="332" height="207" viewBox="0 0 332 207" fill="none" xmlns="http://www.w3.org/2000/svg">
<path d="M330.423 187.562C330.423 187.972 330.193 188.234 330.001 188.56C329.81 188.886 329.823 189.468 329.484 189.667C329.146 189.865 328.68 190.057 328.271 190.057C327.863 190.057 327.582 189.52 327.256 189.328C326.931 189.136 326.727 188.912 326.529 188.573C326.331 188.234 326.28 187.972 326.28 187.562C326.28 187.153 326.114 186.75 326.305 186.417C326.497 186.085 326.797 185.778 327.141 185.58C327.486 185.381 327.876 185.432 328.284 185.432C328.693 185.432 328.942 185.656 329.267 185.848C329.593 186.04 329.861 186.187 330.059 186.526C330.257 186.865 330.429 187.147 330.429 187.556L330.423 187.562Z" stroke="#24425D" stroke-width="3" stroke-linecap="round" stroke-linejoin="round"/>
<path d="M10.2791 2C10.3301 2.18086 10.3194 2.40446 10.3758 2.57545C10.4322 2.74644 10.5505 2.89442 10.6149 3.06212C10.6794 3.22982 10.7358 3.40409 10.8084 3.56851C10.8809 3.73292 10.9481 3.90062 11.0287 4.05517C11.1093 4.20971 11.2302 4.33468 11.3216 4.48266C11.413 4.63063 11.4882 4.79175 11.5903 4.92657C11.6924 5.06139 11.6736 5.36392 11.7864 5.48887C11.8993 5.61383 12.09 5.64012 12.2136 5.74864C12.3372 5.85715 12.477 5.94264 12.6113 6.03142C12.7457 6.12021 12.8934 6.17283 13.0358 6.24517C13.1782 6.31751 13.3072 6.42603 13.4577 6.47535C13.6081 6.52468 13.772 6.44247 13.9252 6.47535C14.0784 6.50824 14.2127 6.62332 14.3685 6.63319C14.5244 6.64305 14.6695 6.58714 14.828 6.58385C14.9865 6.58056 15.1343 6.67923 15.2928 6.66279C15.4513 6.64635 15.5803 6.49178 15.7335 6.46219C15.8866 6.43259 16.0505 6.53125 16.2037 6.4885C16.3568 6.44575 16.5046 6.41616 16.6551 6.36354C16.8055 6.31093 16.9506 6.17282 17.1011 6.11363C16.9533 6.17611 16.7948 6.27147 16.6551 6.33723C16.5154 6.403 16.381 6.50823 16.2467 6.58714C16.1123 6.66606 15.9753 6.76142 15.8463 6.8502C15.7174 6.93899 15.5239 6.92585 15.4003 7.02778C15.2767 7.12972 15.1477 7.25466 15.0295 7.36647C14.9113 7.47827 14.8253 7.65584 14.7151 7.78408C14.605 7.91233 14.4706 8.02084 14.3712 8.15895C14.2718 8.29706 14.2476 8.51408 14.1616 8.66534C14.0757 8.8166 13.9144 8.91854 13.8446 9.08296C13.7747 9.24737 13.7559 9.44467 13.6995 9.61895C13.6431 9.79323 13.5007 9.93463 13.4604 10.1155C13.4201 10.2963 13.4254 10.4936 13.4013 10.6811C13.3771 10.8685 13.4039 11.0559 13.3932 11.2467C13.3824 11.4374 13.4577 11.6149 13.4577 11.8056C13.4577 11.9964 13.506 12.1641 13.5195 12.3515C13.5329 12.5389 13.4846 12.7198 13.506 12.9105C13.5275 13.1012 13.4308 13.2985 13.4604 13.486C13.4899 13.6734 13.678 13.8049 13.7156 13.9891C13.7532 14.1732 13.7076 14.3738 13.7532 14.5547C13.6995 14.3738 13.6941 14.1732 13.6377 14.0022C13.5813 13.8312 13.5087 13.6504 13.4469 13.4827C13.3851 13.315 13.2803 13.1571 13.2078 12.996C13.1352 12.8349 13.1352 12.6014 13.0546 12.4469C12.974 12.2923 12.8316 12.1641 12.743 12.0161C12.6543 11.8681 12.4958 11.7728 12.3937 11.6347C12.2916 11.4966 12.2701 11.2434 12.1599 11.1184C12.0497 10.9934 11.8885 10.9112 11.7649 10.8027C11.6413 10.6942 11.4667 10.6712 11.3323 10.5791C11.198 10.487 11.0475 10.4542 10.9051 10.3818C10.7627 10.3095 10.6203 10.2865 10.4698 10.2339C10.3194 10.1812 10.2146 9.92475 10.0614 9.89515C9.90829 9.86556 9.74975 9.88529 9.59391 9.87213C9.43807 9.85898 9.2903 10.0563 9.13446 10.0629C8.984 10.0694 8.82547 9.90174 8.66695 9.92476C8.50842 9.94777 8.38751 10.1286 8.23167 10.1648C8.08389 10.1977 7.92536 10.1648 7.7722 10.2075C7.61905 10.2503 7.46589 10.2371 7.31274 10.293C7.15959 10.3489 6.97957 10.4936 6.8291 10.5594C6.97688 10.4936 7.18647 10.4114 7.32619 10.3391C7.46591 10.2667 7.63517 10.247 7.7722 10.1681C7.90924 10.0892 7.98446 9.83925 8.11612 9.75047C8.24778 9.66168 8.43587 9.66497 8.56215 9.56633C8.68844 9.46768 8.73679 9.2112 8.85501 9.10269C8.97324 8.99417 9.21775 9.0435 9.32791 8.91854C9.43807 8.79359 9.41927 8.49764 9.52138 8.35953C9.62348 8.22142 9.76319 8.12607 9.85455 7.97481C9.9459 7.82355 10.1474 7.75119 10.2227 7.59007C10.2979 7.42894 10.3543 7.23494 10.4134 7.06395C10.4725 6.89296 10.3436 6.63977 10.3865 6.45563C10.4295 6.27148 10.666 6.14982 10.6929 5.96238C10.7197 5.77495 10.6929 5.57765 10.7036 5.38693C10.7143 5.19621 10.5961 5.01206 10.5934 4.82134C10.5908 4.63062 10.5585 4.45963 10.5451 4.26891C10.5316 4.07819 10.5021 3.91049 10.4752 3.71977C10.4484 3.52905 10.5478 3.32517 10.5128 3.13774C10.4779 2.95031 10.3516 2.80562 10.3086 2.62148C10.2656 2.43734 10.3382 2.20058 10.2871 2.01644L10.2791 2Z" stroke="#24425D" stroke-width="3" stroke-linecap="round" stroke-linejoin="round"/>
<path d="M27.9247 197.437C27.0324 196.969 26.7037 197.469 25.8114 197.001C24.9191 196.532 25.1186 196.213 24.2263 195.744C23.334 195.276 23.4397 195.105 22.5474 194.637C21.6551 194.168 21.1855 194.903 20.2932 194.424C19.4009 193.945 19.7414 193.423 18.8491 192.954C17.9568 192.486 18.0272 192.379 17.1349 191.911C16.2426 191.442 16.2191 191.474 15.3268 190.995C14.4345 190.516 14.2702 190.771 13.3779 190.303C12.4856 189.834 12.5795 189.685 11.6872 189.217C10.7949 188.748 10.5718 189.089 9.67953 188.62C8.78723 188.152 9.01029 187.8 8.11799 187.332C7.22569 186.863 7.13178 187.012 6.22774 186.533C5.3237 186.054 5.58198 185.681 4.67794 185.202C3.7739 184.723 3.37472 185.351 2.48242 184.883" stroke="#24425D" stroke-width="3" stroke-linecap="round" stroke-linejoin="round"/>
<path d="M5.02637 197.437C5.95282 196.86 6.23359 197.122 7.16004 196.555C8.08649 195.989 8.29704 196.178 9.22349 195.611C10.1499 195.044 10.1359 195.033 11.0483 194.456C11.9607 193.879 11.6799 193.616 12.6064 193.049C13.5328 192.483 13.1679 192.147 14.0803 191.58C14.9927 191.013 15.105 191.097 16.0174 190.52C16.9299 189.942 16.8316 189.848 17.758 189.281C18.6845 188.714 18.7406 188.767 19.6671 188.189C20.5935 187.612 20.7199 187.727 21.6463 187.16C22.5728 186.594 22.8956 186.877 23.8221 186.3C24.7485 185.722 24.4537 185.46 25.3802 184.883" stroke="#24425D" stroke-width="3" stroke-linecap="round" stroke-linejoin="round"/>
<path d="M17.7476 205.427C17.606 204.53 17.3989 204.562 17.2573 203.665C17.1157 202.769 16.7561 202.822 16.6253 201.925C16.4946 201.029 16.6253 201.007 16.4837 200.121C16.342 199.235 16.6144 199.182 16.4837 198.296C16.3529 197.41 16.1677 197.431 16.037 196.535C15.9062 195.638 15.7101 195.67 15.5684 194.773C15.4268 193.877 15.2633 193.909 15.1326 193.012C15.0018 192.115 15.3723 192.062 15.2306 191.176C15.089 190.29 14.9038 190.311 14.773 189.415C14.6423 188.518 14.6423 188.518 14.5006 187.621C14.359 186.725 14.1519 186.757 14.0212 185.86C13.8904 184.963 14.1302 184.931 13.9994 184.035C13.8686 183.138 13.8577 183.138 13.7161 182.241C13.5744 181.345 13.7379 181.323 13.5962 180.427C13.4546 179.53 12.9207 179.605 12.7899 178.708C12.6592 177.811 12.7899 177.79 12.6592 176.893" stroke="#24425D" stroke-width="3" stroke-linecap="round" stroke-linejoin="round"/>
<path d="M312.641 89.8267C312.771 90.2048 312.744 90.6723 312.888 91.0299C313.032 91.3874 313.334 91.6968 313.499 92.0475C313.664 92.3981 313.808 92.7625 313.994 93.1063C314.179 93.45 314.351 93.8007 314.557 94.1238C314.763 94.447 315.072 94.7083 315.305 95.0177C315.539 95.3271 315.731 95.664 315.992 95.9458C316.253 96.2277 316.205 96.8603 316.493 97.1216C316.781 97.3828 317.269 97.4378 317.585 97.6647C317.901 97.8916 318.258 98.0704 318.601 98.256C318.944 98.4416 319.322 98.5517 319.686 98.7029C320.05 98.8542 320.379 99.0811 320.764 99.1842C321.148 99.2874 321.567 99.1155 321.959 99.1842C322.35 99.253 322.693 99.4936 323.092 99.5142C323.49 99.5349 323.861 99.418 324.266 99.4111C324.671 99.4042 325.049 99.6105 325.454 99.5761C325.859 99.5418 326.188 99.2186 326.58 99.1567C326.971 99.0948 327.39 99.3011 327.781 99.2117C328.173 99.1223 328.551 99.0604 328.935 98.9504C329.32 98.8404 329.69 98.5516 330.075 98.4279C329.697 98.5585 329.292 98.7579 328.935 98.8954C328.578 99.0329 328.235 99.253 327.891 99.418C327.548 99.583 327.198 99.7824 326.868 99.968C326.539 100.154 326.044 100.126 325.728 100.339C325.413 100.552 325.083 100.814 324.781 101.047C324.479 101.281 324.259 101.653 323.977 101.921C323.696 102.189 323.353 102.416 323.099 102.704C322.844 102.993 322.783 103.447 322.563 103.763C322.343 104.08 321.931 104.293 321.753 104.636C321.574 104.98 321.526 105.393 321.382 105.757C321.238 106.122 320.874 106.417 320.771 106.795C320.668 107.174 320.682 107.586 320.62 107.978C320.558 108.37 320.627 108.762 320.599 109.161C320.572 109.559 320.764 109.931 320.764 110.329C320.764 110.728 320.888 111.079 320.922 111.471C320.956 111.863 320.833 112.241 320.888 112.64C320.942 113.038 320.695 113.451 320.771 113.843C320.846 114.235 321.327 114.51 321.423 114.895C321.519 115.28 321.402 115.699 321.519 116.077C321.382 115.699 321.368 115.28 321.224 114.922C321.08 114.565 320.894 114.187 320.736 113.836C320.579 113.485 320.311 113.155 320.125 112.818C319.94 112.481 319.94 111.993 319.734 111.67C319.528 111.347 319.164 111.079 318.937 110.769C318.711 110.46 318.306 110.261 318.045 109.972C317.784 109.683 317.729 109.154 317.447 108.892C317.166 108.631 316.754 108.459 316.438 108.232C316.122 108.005 315.676 107.957 315.332 107.765C314.989 107.572 314.605 107.504 314.241 107.352C313.877 107.201 313.513 107.153 313.128 107.043C312.744 106.933 312.476 106.397 312.085 106.335C311.693 106.273 311.288 106.314 310.89 106.287C310.492 106.259 310.114 106.672 309.716 106.685C309.331 106.699 308.926 106.348 308.521 106.397C308.116 106.445 307.807 106.823 307.409 106.899C307.031 106.967 306.626 106.899 306.234 106.988C305.843 107.077 305.452 107.05 305.06 107.167C304.669 107.284 304.209 107.586 303.824 107.724C304.202 107.586 304.737 107.414 305.095 107.263C305.452 107.112 305.884 107.07 306.234 106.905C306.585 106.74 306.777 106.218 307.113 106.032C307.45 105.847 307.93 105.853 308.253 105.647C308.576 105.441 308.699 104.905 309.002 104.678C309.304 104.451 309.929 104.554 310.21 104.293C310.492 104.031 310.444 103.413 310.704 103.124C310.965 102.835 311.322 102.636 311.556 102.319C311.789 102.003 312.304 101.852 312.497 101.515C312.689 101.178 312.833 100.772 312.984 100.415C313.135 100.057 312.806 99.528 312.915 99.143C313.025 98.7579 313.63 98.5035 313.698 98.1116C313.767 97.7197 313.698 97.3072 313.726 96.9084C313.753 96.5097 313.451 96.1246 313.444 95.7258C313.437 95.327 313.355 94.9695 313.321 94.5707C313.286 94.172 313.211 93.8213 313.142 93.4226C313.073 93.0238 313.327 92.5975 313.238 92.2056C313.149 91.8137 312.826 91.5111 312.716 91.1261C312.606 90.7411 312.792 90.2461 312.661 89.861L312.641 89.8267Z" stroke="#24425D" stroke-width="3" stroke-linecap="round" stroke-linejoin="round"/>
</svg>
